<svg width="72" height="72" viewBox="0 0 72 72" fill="none" xmlns="http://www.w3.org/2000/svg">
<path d="M69.9997 67.3922H60.7935L37.9023 44.5029H47.1103L69.9997 67.3922Z" fill="white"/>
<path d="M65.4288 21.4813C65.4288 25.0921 64.3249 28.4742 62.4394 31.2602C60.5538 34.0498 57.8921 36.2613 54.7495 37.5921C52.6569 38.4782 50.3517 38.9662 47.9457 38.9662H26.9761C26.7906 38.9662 26.6538 38.9914 26.5331 39.031C26.4124 39.0707 26.308 39.1229 26.2143 39.1931C26.0217 39.33 25.8506 39.5443 25.7479 39.8018C25.6795 39.9711 25.6471 40.1494 25.6471 40.3169C25.6471 40.4844 25.6759 40.623 25.7317 40.7635C25.7929 40.9076 25.8776 41.0498 26.0451 41.2155L52.2175 67.3897H43.0113L21.4402 45.8186C20.6748 45.0532 20.0859 44.1582 19.7041 43.2145C19.3205 42.2708 19.1368 41.2804 19.1368 40.3169C19.1404 38.8023 19.5726 37.3472 20.3614 36.092C21.1484 34.8386 22.3154 33.7742 23.7759 33.1259C23.8966 33.0701 24.0209 33.0215 24.1433 32.9728C24.2676 32.9242 24.3936 32.8792 24.5251 32.8396C24.6494 32.7963 24.7718 32.7621 24.8997 32.7261C25.1374 32.6649 25.3787 32.6126 25.6255 32.5694C25.7029 32.5568 25.7821 32.5442 25.8632 32.5334C25.883 32.5298 25.9028 32.5262 25.9244 32.5244C25.9442 32.5208 25.9676 32.5172 25.9892 32.5172C26.0541 32.5082 26.1171 32.501 26.1819 32.4938C26.3224 32.4812 26.4593 32.4704 26.5979 32.465C26.7222 32.4578 26.8429 32.456 26.9653 32.456H47.9403C50.2257 32.456 52.3183 31.7698 54.0742 30.5848C55.8283 29.3999 57.2258 27.7196 58.056 25.753C58.6088 24.4402 58.915 23.0049 58.915 21.4813V21.2922C58.8952 20.1685 58.7025 19.0915 58.3675 18.083C58.029 17.0745 57.5445 16.1291 56.9358 15.2664C55.7184 13.5448 53.9986 12.1707 52.0068 11.3531C50.6759 10.8092 49.2262 10.5103 47.7062 10.5103H13.1182L29.5298 26.9218H26.9779C25.0924 26.9218 23.2105 27.3198 21.5248 28.0708C21.5122 28.078 21.5014 28.0798 21.4888 28.087L14.0457 20.6475L8.51155 15.1134V60.9155H27.2661L33.7421 67.3915H16.1744V67.4276H1.99951V4.00003H47.7116C51.2864 4.00003 54.6523 5.06436 57.4581 6.89407C60.2639 8.72738 62.5294 11.3279 63.9233 14.4308C64.8507 16.4982 65.3856 18.7872 65.4234 21.186C65.427 21.2868 65.427 21.3841 65.427 21.4831L65.4288 21.4813Z" fill="white"/>
</svg>
