<svg width="257" height="257" viewBox="0 0 257 257" fill="none" xmlns="http://www.w3.org/2000/svg">
<path d="M0.160156 38.5602C0.160156 17.3524 17.3524 0.160156 38.5602 0.160156H256.16V217.76C256.16 238.968 238.968 256.16 217.76 256.16H0.160156V38.5602Z" fill="#17181A"/>
<path d="M149.547 145.333L193.391 189.177H176.146L132.298 145.333H149.547Z" fill="#F2F1ED" stroke="#F2F1ED" stroke-width="0.384"/>
<path d="M83.8103 79.5965L115.194 110.98H110.726C107.075 110.98 103.431 111.746 100.162 113.194L85.8739 98.9126L85.8739 98.9126L75.1805 88.2193L74.8528 87.8915V88.355V176.856V177.048H75.0448H111.204L123.333 189.177H89.8512H89.6592V189.247H62.6539V67.0733H150.789C157.658 67.0733 164.125 69.1184 169.517 72.6341C174.908 76.157 179.261 81.1537 181.939 87.1149C183.72 91.0865 184.748 95.4836 184.821 100.092L184.821 100.096C184.828 100.287 184.828 100.471 184.828 100.663V101.126L184.828 101.126C184.735 107.888 182.629 114.215 179.088 119.447L179.088 119.447C175.465 124.807 170.351 129.056 164.313 131.613C160.293 133.315 155.864 134.253 151.241 134.253H110.723C110.345 134.253 110.061 134.304 109.807 134.387C109.558 134.469 109.337 134.579 109.138 134.728C108.735 135.015 108.383 135.458 108.172 135.987C108.03 136.338 107.963 136.707 107.963 137.054C107.963 137.403 108.023 137.695 108.14 137.988L108.142 137.993C108.269 138.292 108.446 138.589 108.789 138.927L159.032 189.174H141.786L100.162 147.549C98.7009 146.088 97.5775 144.381 96.8496 142.581L96.8494 142.581C96.1179 140.781 95.7675 138.892 95.7675 137.055C95.7743 134.165 96.599 131.388 98.1043 128.993L98.1043 128.993C99.6057 126.602 101.832 124.572 104.617 123.335L104.62 123.334C104.83 123.237 105.046 123.151 105.266 123.064L105.319 123.043C105.319 123.043 105.319 123.043 105.319 123.043C105.556 122.95 105.794 122.865 106.042 122.79L106.042 122.79L106.05 122.788C106.277 122.709 106.501 122.646 106.741 122.578L106.759 122.573C106.759 122.573 106.76 122.573 106.761 122.573C107.214 122.456 107.674 122.356 108.145 122.274C108.294 122.25 108.445 122.226 108.598 122.205L108.598 122.205L108.607 122.204C108.646 122.197 108.676 122.191 108.707 122.189L108.716 122.188L108.725 122.186C108.762 122.18 108.792 122.176 108.816 122.176H108.829L108.842 122.174C108.964 122.157 109.083 122.143 109.208 122.129C109.477 122.105 109.737 122.085 110 122.075L110.003 122.074C110.238 122.061 110.467 122.057 110.702 122.057H151.231C155.686 122.057 159.767 120.719 163.19 118.409L163.191 118.409C166.61 116.099 169.335 112.823 170.954 108.988L170.954 108.988C172.032 106.428 172.629 103.63 172.629 100.66L172.629 100.294L172.629 100.291C172.59 98.0995 172.214 95.9993 171.561 94.0327L171.561 94.0321C170.901 92.0653 169.956 90.2217 168.769 88.5401L168.769 88.54C166.396 85.1834 163.043 82.5052 159.161 80.9116L159.161 80.9115C156.567 79.8514 153.741 79.2687 150.779 79.2687H83.946H83.4825L83.8103 79.5965ZM108.318 137.917C108.437 138.196 108.6 138.471 108.924 138.791L108.318 137.917ZM96.6716 142.653C95.9304 140.83 95.5755 138.916 95.5755 137.054C95.5824 134.128 96.4175 131.316 97.9417 128.891L96.6716 142.653Z" fill="#F2F1ED" stroke="#F2F1ED" stroke-width="0.384"/>
</svg>
